<svg width="21" height="20" viewBox="0 0 21 20" fill="none" xmlns="http://www.w3.org/2000/svg">
<path d="M10.5 2.375C11.95 2.375 13.125 3.55 13.125 5C13.125 6.45 11.95 7.625 10.5 7.625C9.05 7.625 7.875 6.45 7.875 5C7.875 3.55 9.05 2.375 10.5 2.375ZM10.5 13.625C14.2125 13.625 18.125 15.45 18.125 16.25V17.625H2.875V16.25C2.875 15.45 6.7875 13.625 10.5 13.625ZM10.5 0C7.7375 0 5.5 2.2375 5.5 5C5.5 7.7625 7.7375 10 10.5 10C13.2625 10 15.5 7.7625 15.5 5C15.5 2.2375 13.2625 0 10.5 0ZM10.5 11.25C7.1625 11.25 0.5 12.925 0.5 16.25V20H20.5V16.25C20.5 12.925 13.8375 11.25 10.5 11.25Z" fill="#E67E22"/>
</svg>
