<svg width="23" height="24" viewBox="0 0 23 24" fill="none" xmlns="http://www.w3.org/2000/svg">
<path d="M22.125 0.75L21.925 0.7875L15.25 3.375L7.75 0.75L0.7 3.125C0.4375 3.2125 0.25 3.4375 0.25 3.725V22.625C0.25 22.975 0.525 23.25 0.875 23.25L1.075 23.2125L7.75 20.625L15.25 23.25L22.3 20.875C22.5625 20.7875 22.75 20.5625 22.75 20.275V1.375C22.75 1.025 22.475 0.75 22.125 0.75ZM9 3.8375L14 5.5875V20.1625L9 18.4125V3.8375ZM2.75 5.075L6.5 3.8125V18.4375L2.75 19.8875V5.075ZM20.25 18.925L16.5 20.1875V5.575L20.25 4.125V18.925Z" fill="#E67E22"/>
</svg>
